<?xml version="1.0" encoding="UTF-8"?>
<svg version="1.1" xmlns="http://www.w3.org/2000/svg" width="512" height="512">
<path d="M0 0 C1.20914063 0.00902344 2.41828125 0.01804687 3.6640625 0.02734375 C4.55867187 0.03894531 5.45328125 0.05054687 6.375 0.0625 C6.375 0.3925 6.375 0.7225 6.375 1.0625 C6.95540039 1.05583817 7.53580078 1.04917633 8.13378906 1.04231262 C58.60428931 0.4902608 58.60428931 0.4902608 83.4921875 3.3359375 C91.41354905 4.23899512 99.33207154 4.53090899 107.29980469 4.68334961 C108.66347168 4.71827515 108.66347168 4.71827515 110.0546875 4.75390625 C110.84601074 4.76623291 111.63733398 4.77855957 112.45263672 4.79125977 C114.375 5.0625 114.375 5.0625 116.375 7.0625 C118.63877879 7.4888314 118.63877879 7.4888314 121.1875 7.625 C133.12847821 8.51018598 142.50427551 13.47614936 152.69018555 19.44506836 C157.18971827 22.0345388 161.50761648 23.94064244 166.50073242 25.38452148 C169.13742517 26.33829194 170.5518162 27.97886137 172.375 30.0625 C175.02598872 31.85370859 177.54257106 33.12982021 180.515625 34.32421875 C184.91317751 36.19460075 188.82377457 38.69945871 192.8125 41.3125 C193.56168701 41.79976562 194.31087402 42.28703125 195.08276367 42.7890625 C199.61694526 45.7811771 203.88424191 48.87413127 207.83203125 52.625 C209.38197837 54.14100685 209.38197837 54.14100685 211.38671875 55.4375 C213.75444587 57.37261686 214.81622703 59.44471334 216.375 62.0625 C217.86230462 63.51432762 219.38681039 64.92857797 220.9375 66.3125 C227.19687005 72.41652802 231.10690315 79.55892861 235.30126953 87.16503906 C236.61883507 89.49339727 238.08704429 91.70670489 239.5625 93.9375 C242.74514394 99.1942265 244.647256 104.89962759 246.69116211 110.66674805 C248.86446 116.78406789 251.30188807 122.72193981 253.97827148 128.63525391 C259.83989511 141.6241783 259.83989511 141.6241783 259.375 149.0625 C260.035 149.0625 260.695 149.0625 261.375 149.0625 C263.79047882 159.93215469 264.67580755 170.48501373 264.6875 181.625 C264.69265625 182.81319336 264.6978125 184.00138672 264.703125 185.22558594 C264.65116244 191.81184046 264.03491643 197.70623463 262.375 204.0625 C262.05463842 205.57725135 261.74499449 207.09430333 261.4453125 208.61328125 C261.2920752 209.38357666 261.13883789 210.15387207 260.98095703 210.94750977 C260.82224121 211.74858154 260.66352539 212.54965332 260.5 213.375 C260.32710449 214.23601318 260.15420898 215.09702637 259.97607422 215.98413086 C259.0983669 220.36431212 258.24324064 224.74660717 257.4375 229.140625 C255.27223309 240.77936135 252.27848475 251.88721986 248.375 263.0625 C248.11348145 263.82836426 247.85196289 264.59422852 247.58251953 265.38330078 C241.47281067 283.06890628 231.90669772 296.89067599 219.95800781 311.13964844 C217.96176467 313.56444963 216.05961601 316.05344931 214.1574707 318.55224609 C194.98933107 343.63888374 194.98933107 343.63888374 184.05859375 345.4453125 C180.37248878 346.29306299 177.52345643 348.24225324 174.375 350.25 C164.56946505 356.30511963 154.57928934 361.17922915 143.375 364.0625 C143.12372793 365.6215978 142.89995542 367.18514016 142.6875 368.75 C142.55988281 369.62011719 142.43226563 370.49023438 142.30078125 371.38671875 C142.39379497 374.74010803 143.62564034 376.23365742 145.375 379.0625 C145.8850861 381.29716293 146.31801322 383.55033604 146.6875 385.8125 C147.61823661 390.64226833 148.61455443 393.9190831 151.625 397.8125 C154.37802336 401.42961098 154.37802336 401.42961098 154.36328125 404.515625 C154.08023321 406.20871968 153.78731063 407.90019414 153.484375 409.58984375 C153.31543843 413.40901695 155.08252198 415.69003397 157.10546875 418.81640625 C158.83649389 421.87898918 159.32868956 424.85914861 159.8203125 428.3125 C160.00335938 428.89 160.18640625 429.4675 160.375 430.0625 C161.365 430.3925 162.355 430.7225 163.375 431.0625 C164.125 433 164.125 433 164.375 435.0625 C164.045 435.7225 163.715 436.3825 163.375 437.0625 C163.705 437.7225 164.035 438.3825 164.375 439.0625 C164.84907407 446.29212963 164.84907407 446.29212963 162.875 449.5 C161.18807379 452.38183227 161.31850391 453.22217373 161.5625 456.4375 C161.67976469 460.13442365 161.15908744 462.06681532 158.875 465 C155.41038221 468.5214148 152.14840392 469.36078363 147.375 470.0625 C141.19819457 470.92276635 141.19819457 470.92276635 136.1875 474.25 C135.589375 474.848125 134.99125 475.44625 134.375 476.0625 C130.47454411 475.90329772 128.64375831 475.24167221 125.375 473.0625 C110.02220596 467.53354247 110.02220596 467.53354247 94.375 468.0625 C94.375 467.4025 94.375 466.7425 94.375 466.0625 C93.7459375 466.08570313 93.116875 466.10890625 92.46875 466.1328125 C86.67479408 466.25497422 81.94720144 465.59965902 76.375 464.0625 C75.055 464.0625 73.735 464.0625 72.375 464.0625 C72.375 463.4025 72.375 462.7425 72.375 462.0625 C71.31925781 462.0934375 71.31925781 462.0934375 70.2421875 462.125 C60.48030108 461.92109637 54.37010338 458.10065149 46.375 453.0625 C43.58297796 451.4846143 42.65080629 451.0625 39.375 451.0625 C39.045 450.4025 38.715 449.7425 38.375 449.0625 C34.78828311 447.78713977 31.19236583 446.6238988 27.54492188 445.53710938 C21.70947192 443.64170747 21.70947192 443.64170747 19.93359375 440.56640625 C19.74925781 439.74011719 19.56492187 438.91382813 19.375 438.0625 C17.69637418 433.80728226 17.69637418 433.80728226 14.375 431.0625 C13.42957703 429.2331212 12.54314868 427.37305011 11.6875 425.5 C9.2543757 420.45952769 6.59151775 416.58334288 2.6953125 412.5859375 C1.375 411.0625 1.375 411.0625 1.375 409.0625 C0.055 408.7325 -1.265 408.4025 -2.625 408.0625 C-2.68558594 407.44761719 -2.74617187 406.83273437 -2.80859375 406.19921875 C-2.89238281 405.39097656 -2.97617188 404.58273437 -3.0625 403.75 C-3.14371094 402.94949219 -3.22492188 402.14898437 -3.30859375 401.32421875 C-3.57765693 398.90162821 -3.57765693 398.90162821 -4.625 396.0625 C-5.57375 396.2275 -6.5225 396.3925 -7.5 396.5625 C-11.44801224 397.14143458 -15.31077148 397.10033883 -19.29296875 397 C-21.59285047 397.06163837 -23.40332574 397.50093289 -25.625 398.0625 C-35.35943058 399.08518337 -45.15832945 399.1875245 -54.9375 399.25 C-56.0411792 399.26297119 -57.1448584 399.27594238 -58.28198242 399.28930664 C-59.31943604 399.29051514 -60.35688965 399.29172363 -61.42578125 399.29296875 C-62.35559814 399.29707764 -63.28541504 399.30118652 -64.2434082 399.30541992 C-66.625 399.0625 -66.625 399.0625 -69.625 397.0625 C-73.70928687 396.13914527 -77.39736567 396.05166027 -81.5625 396.25 C-99.67691089 396.31147425 -116.33673181 386.86849192 -132.05810547 378.78662109 C-135.86534495 376.85368532 -139.62169032 375.27799856 -143.6875 373.9375 C-147.8985267 372.50462464 -150.54247294 370.75244738 -153.74609375 367.7109375 C-158.44267917 363.59044052 -164.08586695 360.2305012 -169.75 357.625 C-174.30171346 355.15124269 -177.83104874 351.5565857 -181.625 348.0625 C-182.87143916 346.9750716 -184.12134196 345.89159806 -185.375 344.8125 C-186.79472836 343.5659785 -188.21093309 342.31544023 -189.625 341.0625 C-190.11548828 340.62921387 -190.60597656 340.19592773 -191.11132812 339.74951172 C-199.89974962 331.94727591 -207.75387723 324.22902585 -213.55151367 313.87182617 C-215.32364546 310.88495588 -217.42592412 308.15608391 -219.5 305.375 C-228.72272187 292.63461043 -236.14570333 276.7432465 -238.625 261.0625 C-239.285 261.0625 -239.945 261.0625 -240.625 261.0625 C-245.57211507 239.03904867 -247.89565376 217.23244264 -247.9375 194.6875 C-247.94108521 193.89384033 -247.94467041 193.10018066 -247.94836426 192.2824707 C-247.95390164 190.01355908 -247.94331014 187.74540214 -247.92578125 185.4765625 C-247.91716064 184.1663916 -247.90854004 182.8562207 -247.8996582 181.50634766 C-247.63680925 178.2105722 -246.91994351 176.05927701 -245.625 173.0625 C-245.64339455 171.1453796 -245.66433964 169.22815378 -245.71142578 167.31152344 C-245.54424323 162.96099886 -244.24738883 158.85504004 -243.0625 154.6875 C-242.79219971 153.72505371 -242.52189941 152.76260742 -242.2434082 151.77099609 C-236.95945366 133.43977331 -229.85145425 115.86429056 -217.40234375 101.171875 C-215.78951452 99.257748 -214.35206662 97.31235881 -212.9375 95.25 C-210.69317616 92.15647254 -208.35458866 89.73005256 -205.625 87.0625 C-203.27318617 84.41210807 -200.93692804 81.74934152 -198.61328125 79.07421875 C-197.95714844 78.41035156 -197.30101562 77.74648437 -196.625 77.0625 C-195.965 77.0625 -195.305 77.0625 -194.625 77.0625 C-192.98824492 75.44450498 -192.98824492 75.44450498 -191.3125 73.375 C-188.53254053 70.11652292 -185.72873817 67.02187826 -182.625 64.0625 C-181.95210938 63.41796875 -181.27921875 62.7734375 -180.5859375 62.109375 C-141.64576179 25.83285952 -92.41158154 15.04289988 -41.8581543 5.48492432 C-39.83680207 5.10256456 -37.81583871 4.71815046 -35.79492188 4.33349609 C-32.76027497 3.75751621 -29.72449633 3.1884431 -26.6875 2.625 C-25.47670776 2.39756104 -25.47670776 2.39756104 -24.24145508 2.16552734 C-16.18318205 0.70354001 -8.19011603 -0.08029526 0 0 Z M53.17724609 35.23486328 C48.98701078 35.8233526 44.88099811 36.15005851 40.6484375 36.24609375 C39.65086426 36.27010254 38.65329102 36.29411133 37.62548828 36.31884766 C35.69443995 36.35498607 33.76292444 36.37304108 31.83154297 36.36865234 C26.30474968 36.48332424 22.17890172 37.40354927 17.0859375 39.59765625 C9.82068218 42.59929177 3.51116622 42.50907237 -4.25 42.1875 C-7.07666382 42.12212344 -9.90320284 42.0861576 -12.73046875 42.05859375 C-13.455793 42.05090469 -14.18111725 42.04321564 -14.92842102 42.03529358 C-44.4127899 41.8711658 -74.16917752 46.2058856 -101.625 57.0625 C-102.32286621 57.33239746 -103.02073242 57.60229492 -103.73974609 57.88037109 C-111.91308164 60.94076406 -111.91308164 60.94076406 -119.0625 65.8125 C-121.625 68.0625 -121.625 68.0625 -124.77734375 68.83203125 C-129.55415071 70.10012199 -132.94084676 72.95565263 -136.75 76 C-137.49137207 76.58120605 -138.23274414 77.16241211 -138.99658203 77.76123047 C-141.21838397 79.51352316 -143.42448985 81.28356872 -145.625 83.0625 C-146.24310547 83.56056152 -146.86121094 84.05862305 -147.49804688 84.57177734 C-162.34596019 95.98100129 -162.34596019 95.98100129 -172.60302734 111.05639648 C-173.7608088 113.32908885 -175.13835901 114.82235644 -176.90234375 116.66015625 C-180.90403077 121.14594326 -183.42099028 125.88311246 -185.9375 131.3125 C-186.39825928 132.28960937 -186.85901855 133.26671875 -187.33374023 134.2734375 C-195.02742542 151.02245241 -202.92061038 169.64250386 -204.75 188.0625 C-204.8752002 189.30229614 -204.8752002 189.30229614 -205.00292969 190.56713867 C-205.9189726 200.28560616 -206.79879162 209.71007221 -203.625 219.0625 C-203.35399715 221.4330906 -203.1286626 223.80913938 -202.9375 226.1875 C-201.29333393 241.90565324 -195.00722922 258.42310589 -184.9375 270.625 C-181.81925823 274.45131414 -180.62072303 277.77057512 -179.43359375 282.51171875 C-178.24530406 286.26028478 -176.24472989 289.35062757 -174.125 292.640625 C-172.625 295.0625 -172.625 295.0625 -171.23046875 298.03125 C-169.49073011 301.316012 -167.49542064 303.62688928 -164.9375 306.3125 C-160.625 310.85197368 -160.625 310.85197368 -160.625 313.0625 C-159.21803718 314.22924966 -157.80646413 315.39078774 -156.375 316.52734375 C-154.53646113 318.14016914 -153.09858514 319.84909464 -151.5625 321.75 C-142.57732718 332.16730735 -130.98836625 338.49350326 -118.625 344.0625 C-117.56023437 344.54589844 -116.49546875 345.02929688 -115.3984375 345.52734375 C-106.85972531 349.23346026 -97.88801767 352.80081143 -88.5625 353.6875 C-84.97916603 354.0287699 -83.6428624 354.46940531 -80.625 356.0625 C-79.531875 356.371875 -78.43875 356.68125 -77.3125 357 C-73.625 358.0625 -73.625 358.0625 -70.65625 359.53125 C-65.47360672 361.77362837 -60.00779045 362.08523858 -54.4375 362.625 C-53.24310303 362.74794434 -52.04870605 362.87088867 -50.81811523 362.99755859 C-38.71825311 364.17649186 -26.58809047 364.83617912 -14.4465332 365.41625977 C-13.6972052 365.45299301 -12.9478772 365.48972626 -12.17584229 365.52757263 C-10.13506576 365.62645724 -8.09402808 365.71990946 -6.05297852 365.81298828 C-3.12957703 366.02577343 -0.44278601 366.2604115 2.375 367.0625 C2.705 367.7225 3.035 368.3825 3.375 369.0625 C8.985 369.0625 14.595 369.0625 20.375 369.0625 C20.705 370.7125 21.035 372.3625 21.375 374.0625 C21.705 374.7225 22.035 375.3825 22.375 376.0625 C23.035 376.0625 23.695 376.0625 24.375 376.0625 C24.375 376.7225 24.375 377.3825 24.375 378.0625 C25.035 378.0625 25.695 378.0625 26.375 378.0625 C26.375 378.7225 26.375 379.3825 26.375 380.0625 C27.365 380.0625 28.355 380.0625 29.375 380.0625 C29.045 381.0525 28.715 382.0425 28.375 383.0625 C29.035 383.3925 29.695 383.7225 30.375 384.0625 C31.035 383.7325 31.695 383.4025 32.375 383.0625 C32.705 386.0325 33.035 389.0025 33.375 392.0625 C34.695 392.3925 36.015 392.7225 37.375 393.0625 C37.045 394.0525 36.715 395.0425 36.375 396.0625 C37.695 396.3925 39.015 396.7225 40.375 397.0625 C40.375 397.7225 40.375 398.3825 40.375 399.0625 C43.97728987 401.48711818 47.6640642 403.65806458 51.4375 405.8046875 C52.489375 406.40539062 53.54125 407.00609375 54.625 407.625 C55.62015625 408.18316406 56.6153125 408.74132812 57.640625 409.31640625 C60.375 411.0625 60.375 411.0625 62.40625 413.21484375 C64.84236657 415.50111982 66.34169132 415.68726472 69.625 416.0625 C77.78644712 417.31392189 82.69797851 420.05153607 88.375 426.0625 C89.035 426.0625 89.695 426.0625 90.375 426.0625 C90.375 426.7225 90.375 427.3825 90.375 428.0625 C90.93372803 428.14290527 91.49245605 428.22331055 92.06811523 428.30615234 C94.6500973 428.6797656 97.23128772 429.05860645 99.8125 429.4375 C100.69099609 429.56382812 101.56949219 429.69015625 102.47460938 429.8203125 C108.17890654 430.66227518 113.76018218 431.74875829 119.375 433.0625 C118.31624926 429.65937262 117.36597846 427.04896769 115.375 424.0625 C114.715 424.0625 114.055 424.0625 113.375 424.0625 C113.25125 423.27875 113.1275 422.495 113 421.6875 C112.58382007 418.92192178 112.58382007 418.92192178 110.375 417.0625 C109.77734375 414.53125 109.77734375 414.53125 109.3125 411.5625 C108.7464257 407.68329435 108.7464257 407.68329435 107.375 404.0625 C106.715 404.0625 106.055 404.0625 105.375 404.0625 C105.2925 403.155 105.21 402.2475 105.125 401.3125 C104.67044586 397.96959208 104.67044586 397.96959208 102.25 396.0625 C101.63125 395.4025 101.0125 394.7425 100.375 394.0625 C100.625 390.8125 100.625 390.8125 101.375 388.0625 C102.035 388.0625 102.695 388.0625 103.375 388.0625 C103.519375 387.19625 103.66375 386.33 103.8125 385.4375 C104.16785704 383.30535779 104.55914218 381.17861753 105 379.0625 C105.40518714 375.82100291 105.05639817 373.24235814 104.375 370.0625 C103.715 370.0625 103.055 370.0625 102.375 370.0625 C103.06916016 369.01835938 103.06916016 369.01835938 103.77734375 367.953125 C105.47467799 364.88215352 106.20054675 362.23196309 106.9375 358.8125 C107.35435172 356.88132252 107.81958375 354.95847589 108.375 353.0625 C109.035 352.7325 109.695 352.4025 110.375 352.0625 C110.66890625 351.28648437 110.9628125 350.51046875 111.265625 349.7109375 C114.34817779 342.35188542 123.36450663 338.96485637 130.140625 335.76049805 C135.01167924 333.39664275 138.90578724 330.47806906 142.9921875 326.96484375 C145.46500129 324.99064651 147.96722669 323.5593562 150.75 322.0625 C155.12040585 319.57869792 156.49130007 317.45924981 158.3203125 312.88671875 C160.0050811 309.97269305 162.48171476 309.12672619 165.49609375 307.85546875 C167.75297601 306.90297998 169.44298921 305.55825029 171.375 304.0625 C172.48875 303.44375 173.6025 302.825 174.75 302.1875 C179.54793223 299.50024611 183.57152073 296.03134793 187.375 292.0625 C188.096875 291.36125 188.81875 290.66 189.5625 289.9375 C190.50062196 288.9797755 191.43804083 288.02136211 192.375 287.0625 C192.96410156 286.49273437 193.55320312 285.92296875 194.16015625 285.3359375 C202.31852468 276.93427777 210.93247827 263.1706593 212 251.25 C212.07476562 250.45980469 212.14953125 249.66960937 212.2265625 248.85546875 C212.27554687 248.26378906 212.32453125 247.67210937 212.375 247.0625 C213.035 247.0625 213.695 247.0625 214.375 247.0625 C215.36524813 242.62739964 216.34013608 238.18905266 217.3125 233.75 C217.59029297 232.50669922 217.86808594 231.26339844 218.15429688 229.98242188 C220.35083149 219.89953406 221.57375765 210.06575752 221.5625 199.75 C221.56241943 199.02562744 221.56233887 198.30125488 221.56225586 197.55493164 C221.50228678 191.79726849 220.81170059 186.26068772 219.87109375 180.578125 C219.33652848 176.78986721 219.15362421 173.07187047 219 169.25 C218.41183909 156.977739 215.5374873 143.23153146 210.375 132.0625 C209.385 131.4025 208.395 130.7425 207.375 130.0625 C206.68052987 127.7372903 206.01761065 125.40257274 205.375 123.0625 C200.59602641 113.74522055 194.36448886 105.65923549 186.70703125 98.50390625 C184.50075217 96.11646642 183.62618572 93.03406608 182.375 90.0625 C181.41386134 88.70088689 180.41615841 87.36394802 179.375 86.0625 C178.694375 84.825 178.694375 84.825 178 83.5625 C176.12604581 80.67949355 174.06560537 79.20275427 171.375 77.0625 C170.38347296 75.86428845 169.40578848 74.65456788 168.4375 73.4375 C160.50461941 64.32060738 150.45476008 58.74578256 139.5 54 C138.62069824 53.61787354 137.74139648 53.23574707 136.83544922 52.84204102 C131.59644499 50.67806134 127.00674673 49.59767151 121.375 49.0625 C118.54107579 47.6784905 116.49768817 46.17197001 114.14746094 44.07495117 C110.97734793 41.77385558 108.51100775 41.04554467 104.703125 40.17578125 C103.750392 39.954702 103.750392 39.954702 102.77841187 39.72915649 C100.73063032 39.26089331 98.67886958 38.81573877 96.625 38.375 C95.92526062 38.22153107 95.22552124 38.06806213 94.50457764 37.90994263 C80.46130952 34.84549184 67.50968814 33.17868962 53.17724609 35.23486328 Z " fill="#508AE4" transform="translate(247.625,17.9375)"/>
<path d="M0 0 C1.65919896 0.36871088 3.3247643 0.71281674 5 1 C8.00043392 12.20823249 6.79183218 22.14613117 3 33 C2.7525 33.9075 2.505 34.815 2.25 35.75 C0.2595169 39.33286957 -2.58039921 41.77690549 -6 44 C-9.4375 44.875 -9.4375 44.875 -12 45 C-12.33 45.99 -12.66 46.98 -13 48 C-26.9218585 49.06441394 -26.9218585 49.06441394 -31.5625 46.6875 C-33.54011197 44.90126984 -35.24837722 43.00633303 -37 41 C-39.12358944 39.26217725 -41.27497193 37.5650416 -43.43359375 35.87109375 C-45.55272998 33.33975645 -45.58405318 31.24758478 -46 28 C-46.64980669 25.92531598 -47.33770428 23.86219112 -48.0625 21.8125 C-50 16.33096085 -50 16.33096085 -50 13 C-48.57445706 11.74021787 -47.13872092 10.48898133 -45.640625 9.31640625 C-43.79978888 7.88834339 -43.79978888 7.88834339 -41.5625 5.5625 C-29.64345899 -6.35654101 -15.71249364 -6.51056017 0 0 Z " fill="#508AE4" transform="translate(177,229)"/>
<path d="M0 0 C0 0.66 0 1.32 0 2 C1.299375 1.979375 2.59875 1.95875 3.9375 1.9375 C5.29165633 1.91600546 6.64756083 1.92851801 8 2 C8.495 2.495 8.495 2.495 9 3 C11.33297433 3.04092937 13.66705225 3.04241723 16 3 C22.36402018 14.03096832 18.46122222 28.32384459 16 40 C15.01 40 14.02 40 13 40 C12.9071875 40.86625 12.9071875 40.86625 12.8125 41.75 C11.65799152 44.94710041 9.78452021 46.1436532 7 48 C6.01 48 5.02 48 4 48 C3.67 48.99 3.34 49.98 3 51 C-9.54772589 54.11121892 -9.54772589 54.11121892 -15 52 C-20.59035784 48.35779717 -24.86311466 44.19762517 -29 39 C-29.66 38.67 -30.32 38.34 -31 38 C-31.84692901 35.77403998 -32.46846299 33.51636413 -33.12109375 31.2265625 C-34.05931118 28.84974501 -35.08380062 27.65465684 -37 26 C-34.58470361 19.55920964 -32.15135224 13.68304749 -27 9 C-26.2575 7.989375 -25.515 6.97875 -24.75 5.9375 C-20.07249409 0.3074321 -13.21937957 -0.32298921 -6.296875 -0.984375 C-4.00804311 -0.99994528 -2.18223171 -0.66067566 0 0 Z M6 20 C5.67 20.66 5.34 21.32 5 22 C5.99 21.67 6.98 21.34 8 21 C7.34 20.67 6.68 20.34 6 20 Z " fill="#508AE4" transform="translate(268,225)"/>
<path d="M0 0 C8.43204208 2.89098585 8.43204208 2.89098585 12.01171875 5.546875 C12.01171875 6.206875 12.01171875 6.866875 12.01171875 7.546875 C12.67171875 7.546875 13.33171875 7.546875 14.01171875 7.546875 C14.58921875 8.619375 15.16671875 9.691875 15.76171875 10.796875 C17.12866317 13.2183194 18.2645892 14.79974545 20.26171875 16.796875 C20.83921875 17.374375 21.41671875 17.951875 22.01171875 18.546875 C22.01171875 19.536875 22.01171875 20.526875 22.01171875 21.546875 C23.00171875 21.876875 23.99171875 22.206875 25.01171875 22.546875 C25.31826617 31.16426353 25.40761178 38.48162904 22.01171875 46.546875 C21.02171875 46.546875 20.03171875 46.546875 19.01171875 46.546875 C18.74359375 47.124375 18.47546875 47.701875 18.19921875 48.296875 C15.11583032 54.13908467 15.11583032 54.13908467 11.76953125 55.375 C-8.38475475 58.60447016 -8.38475475 58.60447016 -16.77734375 53.19140625 C-20.94558566 50.09100017 -25.01309572 46.89134216 -28.98828125 43.546875 C-28.70595404 41.44143487 -28.41209145 39.33753911 -28.11328125 37.234375 C-27.86964844 35.47673828 -27.86964844 35.47673828 -27.62109375 33.68359375 C-26.98828125 30.546875 -26.98828125 30.546875 -24.98828125 27.546875 C-23.80378025 22.45154628 -23.80378025 22.45154628 -24.98828125 17.546875 C-24.32828125 17.546875 -23.66828125 17.546875 -22.98828125 17.546875 C-22.98828125 16.886875 -22.98828125 16.226875 -22.98828125 15.546875 C-22.385 15.23234375 -21.78171875 14.9178125 -21.16015625 14.59375 C-16.81343021 12.26614832 -13.42829341 10.11429502 -9.98828125 6.546875 C-8.93640625 6.3303125 -8.93640625 6.3303125 -7.86328125 6.109375 C-7.24453125 5.92375 -6.62578125 5.738125 -5.98828125 5.546875 C-4.83306623 3.07556582 -4.83306623 3.07556582 -3.98828125 0.546875 C-1.98828125 -0.453125 -1.98828125 -0.453125 0 0 Z " fill="#518AE4" transform="translate(365.98828125,221.453125)"/>
</svg>
