<?xml version="1.0" encoding="UTF-8"?>
<svg version="1.1" xmlns="http://www.w3.org/2000/svg" width="512" height="512">
<path d="M0 0 C0.63276855 0.47050781 1.26553711 0.94101563 1.91748047 1.42578125 C3.13330718 2.34377015 4.33522523 3.2805753 5.52001953 4.23828125 C7.32599321 5.68699193 7.32599321 5.68699193 10.22265625 7.2109375 C14.11352162 6.45131997 16.67245964 4.21867845 19.72265625 1.7734375 C59.54913036 -27.64263118 116.89831022 -37.02548656 165.11230469 -30.20141602 C191.53815389 -26.04472401 215.89528005 -16.35651541 236.22265625 1.2109375 C236.98191406 1.86707031 237.74117188 2.52320313 238.5234375 3.19921875 C255.00839535 18.62702499 266.12379045 42.61438128 267.32894897 65.20323181 C267.38744469 67.52784244 267.4132206 69.85046631 267.42578125 72.17578125 C267.43284088 73.03736343 267.43990051 73.89894562 267.44717407 74.78663635 C267.67588199 110.95721934 267.67588199 110.95721934 264.22265625 128.2109375 C263.92464111 129.74645264 263.92464111 129.74645264 263.62060547 131.31298828 C256.83437841 165.42712296 243.48789048 197.28343077 221.22265625 224.2109375 C220.75746582 224.7776416 220.29227539 225.3443457 219.81298828 225.92822266 C209.62177888 238.27821146 198.77981039 249.25307765 186.22265625 259.2109375 C185.42085938 259.8915625 184.6190625 260.5721875 183.79296875 261.2734375 C169.06306721 273.75484939 152.61360712 284.07973106 136.22265625 294.2109375 C134.57401617 295.23535114 132.92558168 296.2600957 131.27734375 297.28515625 C129.57175351 298.34397381 127.86602217 299.40256414 126.16015625 300.4609375 C125.30276855 300.99340088 124.44538086 301.52586426 123.56201172 302.07446289 C118.62290238 305.13349208 113.66220006 308.15145281 108.67578125 311.1328125 C96.74011541 318.30456459 85.52261307 325.61280237 74.97998047 334.71582031 C70.41082418 338.60322141 65.61947514 342.22532334 60.88427734 345.90673828 C59.2506319 347.18897953 57.63571954 348.49182433 56.0234375 349.80078125 C42.29187987 360.83627506 25.07792101 372.60044427 6.7265625 370.9921875 C-11.04025142 368.03578966 -26.40777389 356.50047545 -40.15771484 345.50390625 C-41.83201851 344.16728999 -43.51600555 342.84383321 -45.203125 341.5234375 C-49.95511104 337.80336809 -54.69696086 334.07081115 -59.421875 330.31640625 C-60.02588135 329.8380835 -60.6298877 329.35976074 -61.25219727 328.86694336 C-62.38086231 327.97298352 -63.50784959 327.07689823 -64.63256836 326.17797852 C-73.12420872 319.46121425 -82.13346346 313.66071114 -91.41357422 308.10275269 C-94.50743576 306.24892033 -97.5934294 304.38207921 -100.6796875 302.515625 C-101.29045135 302.14648483 -101.90121521 301.77734467 -102.53048706 301.39701843 C-129.40542729 285.13048818 -155.91701318 267.91599868 -178.77734375 246.2109375 C-179.56939209 245.45973633 -179.56939209 245.45973633 -180.37744141 244.69335938 C-189.0101762 236.44760085 -196.72761698 227.84445038 -203.77734375 218.2109375 C-204.545625 217.16421875 -205.31390625 216.1175 -206.10546875 215.0390625 C-229.30449307 182.4306437 -244.7755214 142.95386251 -244.98046875 102.55859375 C-244.98616882 101.65958847 -244.9918689 100.76058319 -244.9977417 99.83433533 C-245.00713208 97.93929192 -245.01370175 96.04423263 -245.01757812 94.14916992 C-245.02721269 91.31203073 -245.05826432 88.47563956 -245.08984375 85.63867188 C-245.17680105 70.8073156 -244.09123601 56.12113381 -239.08984375 42.0234375 C-238.70965088 40.92418945 -238.70965088 40.92418945 -238.32177734 39.80273438 C-234.10313363 28.09074691 -228.19960871 17.43881042 -219.77734375 8.2109375 C-219.34437988 7.7355957 -218.91141602 7.26025391 -218.46533203 6.77050781 C-192.90967381 -20.92887252 -156.78053586 -30.85164788 -120.16162109 -32.67089844 C-79.72501288 -34.08276674 -32.96999843 -24.65437145 0 0 Z M-177.77734375 42.2109375 C-178.45410156 42.86707031 -179.13085938 43.52320313 -179.828125 44.19921875 C-194.14351723 59.02247412 -197.24658797 81.15221618 -196.98828125 100.82421875 C-195.94675411 136.756905 -180.08910811 170.48106781 -156.77734375 197.2109375 C-156.28556641 197.7771582 -155.79378906 198.34337891 -155.28710938 198.92675781 C-149.22194762 205.85659815 -142.81177867 212.26336806 -135.77734375 218.2109375 C-134.28654297 219.49291016 -134.28654297 219.49291016 -132.765625 220.80078125 C-111.27237292 238.86106138 -86.22166803 253.20546257 -62.1953125 267.546875 C-50.49605552 274.55329216 -39.05919072 281.89740299 -27.71484375 289.4609375 C-27.02373505 289.92107239 -26.33262634 290.38120728 -25.62057495 290.85528564 C-13.43106174 298.98283838 -1.47601057 307.38968065 10.22265625 316.2109375 C11.31505615 315.48092529 12.40745605 314.75091309 13.53295898 313.9987793 C17.67161642 311.23354053 21.81136822 308.46994373 25.95141602 305.70678711 C27.72709537 304.52134709 29.50249608 303.33548956 31.27758789 302.14916992 C47.27216881 291.46046187 63.29103507 280.86683749 79.78515625 270.9609375 C82.21357057 269.494383 84.6401673 268.02483755 87.06640625 266.5546875 C87.66820206 266.19014465 88.26999786 265.82560181 88.89002991 265.45001221 C127.87552913 241.83591011 127.87552913 241.83591011 163.22265625 213.2109375 C164.59340808 212.01853628 165.96823488 210.83079867 167.34765625 209.6484375 C189.16845722 190.53883825 205.42266309 165.66021092 212.97265625 137.6484375 C213.27067139 136.55293579 213.27067139 136.55293579 213.57470703 135.43530273 C216.69184574 123.24587472 217.63472892 111.00984904 217.59765625 98.4609375 C217.59711243 97.76260803 217.5965686 97.06427856 217.5960083 96.3447876 C217.51664439 74.11209826 212.69680168 53.39065473 196.91015625 36.77734375 C177.37606452 18.21369568 152.69118685 15.55979694 126.87890625 15.9609375 C111.18672181 16.41446884 96.01498753 18.94055255 81.22265625 24.2109375 C80.52333984 24.45827637 79.82402344 24.70561523 79.10351562 24.96044922 C60.44075597 31.72336463 45.9206425 42.1127646 32.21875 56.3125 C31.492323 57.05898804 31.492323 57.05898804 30.7512207 57.82055664 C29.4391806 59.1786973 28.14654117 60.55550548 26.85546875 61.93359375 C22.18725677 65.97152785 17.41870637 67.64020455 11.28515625 67.6484375 C10.32738281 67.66777344 9.36960938 67.68710938 8.3828125 67.70703125 C-0.41725531 66.32556201 -5.51346139 60.86093388 -11.40234375 54.5859375 C-18.67443031 47.10503295 -25.85549874 40.62559132 -34.77734375 35.2109375 C-35.70087646 34.64221924 -35.70087646 34.64221924 -36.64306641 34.06201172 C-78.94645561 8.53907365 -141.28797504 4.83831629 -177.77734375 42.2109375 Z " fill="#FFCE37" transform="translate(244.77734375,86.7890625)"/>
</svg>
