<?xml version="1.0" encoding="UTF-8"?>
<svg version="1.1" xmlns="http://www.w3.org/2000/svg" width="512" height="512">
<path d="M0 0 C8.20724161 5.4163447 10.8698778 12.3583622 13.5 21.5625 C13.86722168 22.79154053 14.23444336 24.02058105 14.61279297 25.28686523 C15.91664907 29.6621417 17.17838169 34.0491745 18.4375 38.4375 C18.95848297 40.24984101 19.47947965 42.06217808 20.00048828 43.87451172 C20.27140793 44.81774292 20.54232758 45.76097412 20.82145691 46.73278809 C21.3839881 48.69098817 21.94690983 50.64907611 22.51020813 52.60705566 C23.90305582 57.45073143 25.28859676 62.29618792 26.65649414 67.14697266 C31.1297849 82.91497526 35.90136312 98.76072811 42.75 113.6875 C43.31001709 114.91243164 43.31001709 114.91243164 43.88134766 116.16210938 C50.16956629 129.56793426 57.90264001 141.03965409 68.4375 151.4375 C69.22640625 152.22511719 70.0153125 153.01273438 70.828125 153.82421875 C101.76795696 183.1760792 147.43172119 196.26824128 187.80859375 205.94140625 C189.62525818 206.38071994 191.44190854 206.82009183 193.25854492 207.25952148 C196.81211165 208.11809896 200.37073727 208.94824989 203.93481445 209.76196289 C221.70902878 213.93581371 221.70902878 213.93581371 226.78759766 221.4296875 C230.68474832 228.1775155 231.16006832 235.37806632 229.35522461 242.84716797 C226.57069839 250.70665804 219.66077279 254.98411931 212.5 258.4375 C211.6651709 258.85773438 210.8303418 259.27796875 209.97021484 259.7109375 C208.26896433 260.56495944 206.56389919 261.41142765 204.85498047 262.25 C202.68641795 263.31522804 200.53043533 264.40089011 198.37890625 265.5 C195.12711308 267.15676935 191.85929924 268.77805307 188.58203125 270.38378906 C187.09278737 271.11552592 185.60596983 271.8522134 184.12109375 272.59277344 C156.56433085 286.31586443 127.72022023 296.74844754 97.4375 302.4375 C99.00325581 311.43551229 102.46548684 319.67723086 105.8125 328.125 C106.44499524 329.73781059 107.07690424 331.35085119 107.70825195 332.96411133 C110.63774738 340.43380166 113.60593266 347.88651398 116.64453125 355.3125 C133.98902772 397.78222788 154.03248561 448.56100691 139.37109375 494.80078125 C136.36423529 501.49922831 132.13394856 504.71249067 125.625 507.75 C107.45992995 511.66795629 88.85357731 501.23960454 73.75 492.125 C57.45583291 481.32707435 43.3711771 466.81519015 31.74658203 451.1953125 C30.45713619 449.46386714 29.14988455 447.74714272 27.83984375 446.03125 C15.98160116 430.33897421 5.6840897 413.49383233 -4.81958008 396.88256836 C-8.32314753 391.34742754 -11.90317538 385.87096785 -15.5625 380.4375 C-18.63422367 381.89714969 -20.45258701 383.1789354 -22.625 385.8125 C-25.68740809 389.43470311 -28.84412334 392.95397765 -32.0625 396.4375 C-35.70490657 400.39270983 -39.29751162 404.38313541 -42.8203125 408.4453125 C-44.87750399 410.79770635 -46.96846915 413.11784966 -49.0625 415.4375 C-52.32954335 419.05773723 -55.55770776 422.70733565 -58.7578125 426.38671875 C-60.79208141 428.69838797 -62.8647231 430.9728143 -64.9375 433.25 C-68.06672827 436.71280082 -71.06750349 440.24429003 -74 443.875 C-77.85958603 448.64746203 -81.93449991 453.16859109 -86.08984375 457.68359375 C-89.30959519 461.26957284 -92.32155176 465.00451492 -95.34765625 468.75390625 C-97.51882827 471.38458557 -99.76491357 473.91692424 -102.0625 476.4375 C-105.10437448 479.77883363 -108.02791499 483.1786601 -110.875 486.6875 C-112.4367319 488.60479258 -113.99930229 490.52140233 -115.5625 492.4375 C-116.04154785 493.02708496 -116.5205957 493.61666992 -117.01416016 494.22412109 C-118.56056595 496.11744856 -120.1224652 497.9970561 -121.6875 499.875 C-122.40546753 500.76203613 -122.40546753 500.76203613 -123.13793945 501.66699219 C-127.31846362 506.64058323 -131.37734876 509.91147844 -137.9921875 511.00390625 C-146.90428858 510.99380183 -152.72021622 509.84052694 -159.37109375 503.79296875 C-163.31623184 499.60185083 -165.40331434 495.37020838 -165.64282227 489.453125 C-165.55931989 487.1609448 -165.36609417 484.90613915 -165.125 482.625 C-165.02993164 481.7187085 -164.93486328 480.81241699 -164.83691406 479.87866211 C-161.74080246 453.5508728 -154.52386599 427.81193395 -147.62597656 402.28735352 C-139.50017571 371.9654267 -132.98789236 340.75010102 -136.375 309.25 C-136.44493164 308.56728027 -136.51486328 307.88456055 -136.58691406 307.18115234 C-137.43872323 300.32086455 -139.17132127 295.07669604 -144.67695618 290.67747498 C-148.33278083 288.2733245 -152.40754806 286.95212397 -156.515625 285.51171875 C-157.96298035 284.98825867 -157.96298035 284.98825867 -159.4395752 284.45422363 C-162.55919941 283.33085865 -165.68523693 282.22690343 -168.8125 281.125 C-170.9613603 280.35940384 -173.11012309 279.59353393 -175.25878906 278.82739258 C-201.46862742 269.52304193 -227.031138 261.17033507 -254.84985352 258.65112305 C-263.04648258 257.82044157 -270.26587574 256.25949039 -276 250 C-280.46283795 244.16872279 -282.15643869 237.62267906 -281.31640625 230.2890625 C-279.86027236 223.56249709 -276.67485626 218.73286318 -270.9621582 214.76977539 C-266.17926104 212.11434047 -260.89598092 210.62693143 -255.70571899 208.96057129 C-240.18997042 203.96218052 -225.02237848 198.19941195 -209.875 192.1875 C-186.85250641 183.08717907 -163.96561026 175.30634083 -139.98803711 169.11132812 C-132.34570784 167.12160713 -124.82042302 164.95861304 -117.3671875 162.33984375 C-116.68419083 162.10035004 -116.00119415 161.86085632 -115.29750061 161.61410522 C-104.13706868 157.58816014 -94.92271753 151.93112525 -86.5625 143.4375 C-85.93859375 142.81230469 -85.3146875 142.18710938 -84.671875 141.54296875 C-79.33361491 135.8319923 -75.33256623 129.24544406 -71.5625 122.4375 C-71.21993164 121.82197266 -70.87736328 121.20644531 -70.52441406 120.57226562 C-55.25409563 92.42250807 -48.00282013 59.2733833 -39.3984375 28.671875 C-39.14063004 27.75558319 -38.88282257 26.83929138 -38.61720276 25.89523315 C-37.51227614 21.94125532 -36.44368833 17.98963408 -35.48681641 13.99707031 C-33.70984012 7.15388114 -30.34284282 3.90415246 -24.46484375 0.41796875 C-17.80262167 -3.01574325 -6.86862997 -3.12696384 0 0 Z M-12.5625 96.4375 C-15.04745855 102.3825025 -17.52370792 108.33052417 -19.95703125 114.296875 C-29.36372916 137.27969491 -39.73203658 158.19701537 -55.5625 177.4375 C-56.35914063 178.48357422 -56.35914063 178.48357422 -57.171875 179.55078125 C-72.22776969 198.81347005 -99.69599558 205.34200726 -122.0546875 211.51953125 C-122.70913345 211.70043808 -123.36357941 211.88134491 -124.03785706 212.06773376 C-124.70123581 212.25106766 -125.36461456 212.43440155 -126.0480957 212.62329102 C-126.71926422 212.80884552 -127.39043274 212.99440002 -128.0819397 213.18557739 C-129.44029021 213.56083981 -130.79883038 213.93541641 -132.15756226 214.30929565 C-146.85791354 218.36667111 -161.2167671 223.27570241 -175.5625 228.4375 C-175.5625 229.0975 -175.5625 229.7575 -175.5625 230.4375 C-174.83587158 230.70788086 -174.10924316 230.97826172 -173.3605957 231.25683594 C-159.76945154 236.32814252 -146.21313475 241.47697961 -132.79330444 246.98815918 C-130.98787024 247.72932212 -129.1801223 248.46484103 -127.37231445 249.20019531 C-102.32722601 259.57455815 -102.32722601 259.57455815 -96.7265625 270.32421875 C-81.60067234 310.77836123 -92.60760255 360.27089694 -102.99609375 400.48046875 C-103.82033337 403.47908834 -103.82033337 403.47908834 -102.5625 406.4375 C-93.26406859 396.51261958 -93.26406859 396.51261958 -84.2265625 386.3515625 C-79.97017677 381.45571976 -75.58211553 376.67398699 -71.234375 371.859375 C-67.85864978 368.11622391 -64.49112565 364.36953528 -61.1875 360.5625 C-57.77770847 356.64755417 -54.26910037 352.82572604 -50.75488281 349.00488281 C-47.7984354 345.78941742 -44.85848812 342.56031197 -41.9375 339.3125 C-40.85082031 338.11367188 -40.85082031 338.11367188 -39.7421875 336.890625 C-38.23826171 335.19803469 -36.76585842 333.4770889 -35.3203125 331.734375 C-29.89620242 325.31553193 -25.33531056 321.13056341 -16.796875 320.10546875 C-11.07807315 319.89452934 -6.51020041 320.35685635 -1.5625 323.4375 C4.41075057 329.32435562 9.07384526 336.01759443 13.5625 343.0625 C14.20501709 344.05886475 14.84753418 345.05522949 15.50952148 346.08178711 C20.54341446 353.93056846 25.40582176 361.87961152 30.22802734 369.85961914 C57.30769232 416.03717654 57.30769232 416.03717654 96.4375 451.4375 C96.7675 451.4375 97.0975 451.4375 97.4375 451.4375 C97.69369323 443.84169218 97.09905928 436.86215418 95.5 429.4375 C95.27892578 428.4069751 95.05785156 427.3764502 94.83007812 426.31469727 C89.18131134 401.26241657 78.87375253 377.77804371 68.6484375 354.33251953 C40.19015675 289.07630748 40.19015675 289.07630748 45.6875 273.125 C48.18851616 267.39686622 51.18759938 264.10585799 56.8972168 261.33837891 C62.07277944 259.50293189 67.56067533 259.40158966 73 259 C96.04048709 256.93226398 118.23100058 251.84360861 139.4375 242.4375 C139.4375 241.7775 139.4375 241.1175 139.4375 240.4375 C138.3222998 240.05380249 138.3222998 240.05380249 137.18457031 239.66235352 C109.83772583 230.20472756 81.96484264 219.6730355 58.4375 202.4375 C57.39722656 201.68082031 56.35695313 200.92414063 55.28515625 200.14453125 C37.02815164 186.6139593 22.86833254 171.06272453 11.4375 151.4375 C10.43976563 149.77074219 10.43976563 149.77074219 9.421875 148.0703125 C0.28792705 131.99307891 -5.90035769 113.98253292 -11.5625 96.4375 C-11.8925 96.4375 -12.2225 96.4375 -12.5625 96.4375 Z " fill="#4884E3" transform="translate(281.5625,1.5625)"/>
</svg>
