<?xml version="1.0" encoding="UTF-8"?>
<svg version="1.1" xmlns="http://www.w3.org/2000/svg" width="512" height="512">
<path d="M0 0 C1.00804687 -0.02835938 2.01609375 -0.05671875 3.0546875 -0.0859375 C9.69620449 0.91113503 14.28344683 6.2435679 18.83300781 10.82421875 C19.47440704 11.46211334 20.11580627 12.10000793 20.77664185 12.75723267 C22.88217413 14.85400674 24.98035832 16.95795879 27.078125 19.0625 C28.54420241 20.5272294 30.01057654 21.99166186 31.47723389 23.45581055 C34.54342369 26.51905737 37.60598074 29.58587851 40.66601562 32.65527344 C44.58900808 36.58968002 48.52093784 40.51501295 52.455616 44.43772888 C55.48235839 47.45724762 58.50432527 50.48150949 61.5248642 53.50723267 C62.97308286 54.95678537 64.42278835 56.40485418 65.87400055 57.85140991 C67.89906827 59.87140201 69.91761991 61.89768836 71.93457031 63.92578125 C72.53510223 64.52226471 73.13563416 65.11874817 73.75436401 65.73330688 C78.37607245 70.40245656 80.41404393 73.49385298 80.5 80.25 C80.39863418 85.45766907 79.82448398 88.48080633 76.125 92.375 C71.47851746 96.78915841 67.23706934 96.84258261 61.125 96.90625 C53.84779963 95.6175791 48.85660516 89.37180782 43.8828125 84.328125 C43.11444061 83.55692322 42.34606873 82.78572144 41.55441284 81.9911499 C39.11485106 79.54044318 36.68235761 77.08285503 34.25 74.625 C32.59160843 72.95657131 30.93275914 71.28859745 29.2734375 69.62109375 C25.21864317 65.5443145 21.16962098 61.46187121 17.125 57.375 C17.11913376 57.96428284 17.11326752 58.55356567 17.10722351 59.16070557 C16.52204087 115.50997384 16.52204087 115.50997384 13.125 137.375 C12.95484375 138.5005127 12.7846875 139.62602539 12.609375 140.78564453 C5.98974926 183.52360318 -6.96187514 228.02065911 -32.875 263.375 C-33.64328125 264.426875 -34.4115625 265.47875 -35.203125 266.5625 C-40.95269869 274.2906673 -47.24257707 281.39882345 -53.875 288.375 C-54.49375 289.05820312 -55.1125 289.74140625 -55.75 290.4453125 C-67.28019679 302.74762069 -84.07429657 315.7151228 -100.30078125 320.87890625 C-113.00865296 324.95674235 -117.01709572 331.50906784 -123.39941406 342.91357422 C-127.41869936 349.61814641 -132.7678274 355.48412643 -137.875 361.375 C-138.34212402 361.91656738 -138.80924805 362.45813477 -139.29052734 363.01611328 C-143.77133979 368.17627996 -148.35938312 373.08686701 -153.609375 377.46875 C-155.3204731 378.90843254 -156.99104873 380.39646833 -158.640625 381.90625 C-206.54459195 425.34776551 -276.58075934 448.29673789 -340.61987305 448.67016602 C-342.00734564 448.68179791 -343.39476978 448.702422 -344.78198242 448.73168945 C-346.81979766 448.77443748 -348.85632326 448.7905259 -350.89453125 448.80078125 C-352.69047729 448.82265503 -352.69047729 448.82265503 -354.52270508 448.8449707 C-359.68113868 448.1217907 -362.73004688 445.58021381 -366.25 441.875 C-368.64803575 436.70999991 -368.62881535 431.9747712 -367.875 426.375 C-365.59709954 421.46875286 -362.65754033 418.8582421 -357.875 416.375 C-352.8440965 415.55563461 -347.91431802 415.26596819 -342.82495117 415.13598633 C-291.19748956 413.69750943 -237.9590635 397.83919946 -195.875 367.375 C-195.3190918 366.97458496 -194.76318359 366.57416992 -194.19042969 366.16162109 C-187.82174857 361.52968342 -181.81004713 356.56536023 -176 351.25 C-175.48872559 350.78352051 -174.97745117 350.31704102 -174.45068359 349.83642578 C-170.28691969 345.94547418 -166.57002295 341.70893973 -162.875 337.375 C-163.58406494 337.33536133 -164.29312988 337.29572266 -165.02368164 337.25488281 C-191.46262841 335.70305489 -216.67539952 331.39597376 -235.875 311.375 C-253.13928887 291.12321355 -257.29284136 269.26177689 -255.875 243.375 C-254.26622745 228.82864854 -246.34775881 214.31378101 -236.875 203.375 C-236.27816406 202.58222656 -235.68132812 201.78945312 -235.06640625 200.97265625 C-226.86635931 191.25245801 -215.61487258 184.82955685 -203.875 180.375 C-202.76382813 179.941875 -201.65265625 179.50875 -200.5078125 179.0625 C-180.46989718 172.51950724 -158.09016517 175.13401968 -139.4375 184.25 C-133.82438335 187.13509138 -128.68166756 190.25970243 -123.875 194.375 C-123.24851562 194.84808594 -122.62203125 195.32117188 -121.9765625 195.80859375 C-106.95156496 207.71575584 -99.59019311 226.18864406 -96.30859375 244.54296875 C-95.75207151 249.46142207 -95.72986974 254.30466518 -95.75 259.25 C-95.74613281 260.19230469 -95.74226563 261.13460938 -95.73828125 262.10546875 C-95.74635288 267.94126029 -96.12625935 273.58711596 -96.875 279.375 C-52.66817863 248.99824565 -32.18282759 196.03295803 -22.68359375 145.15625 C-17.49542121 116.01694399 -16.78222501 86.90432772 -16.875 57.375 C-17.32965637 57.8340976 -17.78431274 58.29319519 -18.25274658 58.76620483 C-22.983569 63.54125641 -27.72140266 68.30926753 -32.46337891 73.07324219 C-34.23244313 74.85236713 -35.99970857 76.63328255 -37.76513672 78.41601562 C-40.30225987 80.97738335 -42.84577099 83.53225352 -45.390625 86.0859375 C-46.17930969 86.88494476 -46.96799438 87.68395203 -47.78057861 88.50717163 C-48.52104431 89.24778839 -49.26151001 89.98840515 -50.02441406 90.75146484 C-50.67283264 91.40432465 -51.32125122 92.05718445 -51.98931885 92.72982788 C-56.66617139 96.81017169 -60.93934139 96.80470868 -66.9609375 96.6875 C-72.26240101 96.11897844 -74.71472495 93.59634216 -78.25 89.875 C-80.59825726 84.81721514 -80.84597307 79.85814207 -79.875 74.375 C-76.99110328 69.47762334 -73.44336889 65.6573116 -69.42578125 61.66699219 C-68.78788666 61.02559296 -68.14999207 60.38419373 -67.49276733 59.72335815 C-65.39599326 57.61782587 -63.29204121 55.51964168 -61.1875 53.421875 C-59.7227706 51.95579759 -58.25833814 50.48942346 -56.79418945 49.02276611 C-53.73094263 45.95657631 -50.66412149 42.89401926 -47.59472656 39.83398438 C-43.66031998 35.91099192 -39.73498705 31.97906216 -35.81227112 28.044384 C-32.79275238 25.01764161 -29.76849051 21.99567473 -26.74276733 18.9751358 C-25.29321463 17.52691714 -23.84514582 16.07721165 -22.39859009 14.62599945 C-20.37859799 12.60093173 -18.35231164 10.58238009 -16.32421875 8.56542969 C-15.42949356 7.66463181 -15.42949356 7.66463181 -14.51669312 6.74563599 C-9.84754344 2.12392755 -6.75614702 0.08595607 0 0 Z M-210.0390625 223.4765625 C-220.56924931 234.63777174 -223.50769825 246.68511281 -223.18359375 261.6328125 C-222.61990677 273.44451055 -217.26044535 283.55388559 -208.6875 291.625 C-192.32021444 304.49282138 -171.96481057 305.05821175 -152.15234375 302.7890625 C-150.34938366 302.51939376 -148.5484039 302.23604599 -146.75 301.9375 C-145.91525146 301.82269287 -145.08050293 301.70788574 -144.22045898 301.58959961 C-140.76613208 300.91335572 -138.60544009 300.40422669 -136.51538086 297.45922852 C-135.43998825 295.12710258 -134.61972239 292.83162002 -133.875 290.375 C-133.46894531 289.14394531 -133.06289063 287.91289062 -132.64453125 286.64453125 C-132.32871094 285.50371094 -132.01289063 284.36289062 -131.6875 283.1875 C-131.36394531 282.03894531 -131.04039062 280.89039063 -130.70703125 279.70703125 C-126.64271189 263.43067248 -127.52504867 246.55756205 -135.1875 231.5625 C-142.4790867 219.46156888 -152.25061468 212.8348768 -165.875 209.375 C-182.58053134 205.84312069 -198.12998897 211.91143333 -210.0390625 223.4765625 Z " fill="#508AE4" transform="translate(399.875,31.625)"/>
</svg>
