<?xml version="1.0" encoding="UTF-8"?>
<svg version="1.1" xmlns="http://www.w3.org/2000/svg" width="512" height="512">
<path d="M0 0 C1.09940918 0.00902344 2.19881836 0.01804688 3.33154297 0.02734375 C22.79413991 0.44138038 38.34638833 8.6604727 52.6875 21.4375 C53.51636719 22.12328125 54.34523437 22.8090625 55.19921875 23.515625 C67.91814 34.29775605 76.66909118 48.59643012 85.6875 62.4375 C95.71859379 79.34648083 95.71859379 79.34648083 110.6953125 91.30078125 C112.75392172 91.63148874 112.75392172 91.63148874 114.51171875 90.35546875 C116.60411908 88.41221226 118.66805713 86.45694287 120.6875 84.4375 C121.35652344 83.76847656 122.02554687 83.09945312 122.71484375 82.41015625 C131.53231118 73.06725314 138.80459935 62.30938466 146.234375 51.859375 C156.4162363 37.77807746 169.9417595 27.47815532 187.23046875 23.8359375 C206.32895465 21.63475607 224.89144689 23.55678232 240.55078125 35.6484375 C243.01450399 37.83924406 245.36296487 40.10035437 247.6875 42.4375 C248.58662109 43.26507813 248.58662109 43.26507813 249.50390625 44.109375 C253.98521767 48.30995462 257.58159134 53.09427252 261.13671875 58.08300781 C262.85554481 60.42298015 264.17757915 62.2000912 266.84375 63.44140625 C268.95476625 63.63378397 268.95476625 63.63378397 271 61.5 C272.47496959 59.88113093 273.87648723 58.21145645 275.28125 56.53125 C280.34924566 50.54180059 286.03439567 43.95527682 294.2890625 43.19921875 C303.6389563 42.96969939 309.7148819 44.82452282 317 50.6875 C322.5625249 55.98355664 324.77990845 60.25962835 325.20751953 68.04785156 C325.50785969 82.73344949 319.3242438 93.81763151 309.6875 104.4375 C298.47530859 116.03212275 285.54063253 123.48894729 269.125 123.875 C251.89054254 123.32590629 238.49651096 116.11572414 226.34375 104.125 C222.22839001 99.72776604 218.77004875 95.18209626 215.5 90.125 C211.9015079 84.58118445 209.1160123 80.55701422 202.625 78.4375 C198.31096709 78.4375 195.82946851 80.40259104 192.6875 83.25 C187.67011209 88.73776802 183.50399298 94.51478381 179.375 100.6875 C166.33262694 120.14069227 150.13935633 139.37567305 126.62890625 145.80859375 C108.3554708 148.72437483 91.91992628 147.04798668 76.40625 136.5078125 C67.24891823 129.53455699 59.63835195 121.60926319 52.6875 112.4375 C52.07189209 111.62635742 52.07189209 111.62635742 51.44384766 110.79882812 C45.72934724 103.23103427 40.32017005 95.47371241 35 87.625 C30.48952352 80.97211318 25.86270538 74.59313997 20.6875 68.4375 C20.02041016 67.57125 20.02041016 67.57125 19.33984375 66.6875 C15.37736493 61.59106422 10.2898207 57.07292889 3.70703125 56.1640625 C-3.5342451 55.83083562 -7.70065162 58.23868289 -13.03540039 62.96337891 C-17.37621148 67.17794155 -20.5753359 71.54130711 -23.625 76.75 C-24.09228516 77.52690186 -24.55957031 78.30380371 -25.04101562 79.10424805 C-27.40768611 83.07305224 -29.68011671 87.07948544 -31.85546875 91.15625 C-37.09790853 100.97934155 -42.70994272 109.29105838 -50.3125 117.4375 C-51.20001953 118.44490234 -51.20001953 118.44490234 -52.10546875 119.47265625 C-64.7865819 133.21835667 -84.48801333 142.71855519 -103.04296875 143.75 C-125.35781504 144.52095438 -142.50173579 136.95791544 -158.98828125 122.01171875 C-171.84844055 109.73363172 -186.61135423 91.82072013 -187.6484375 73.31640625 C-187.98064187 57.45228607 -187.98064187 57.45228607 -181.734375 50.7421875 C-175.61677582 45.03793961 -168.6246565 42.46466391 -160.3125 42.4375 C-152.79395992 42.97453858 -147.85266194 45.34332978 -142.3125 50.4375 C-140.23882124 53.00382251 -138.55473668 55.72696357 -136.875 58.5625 C-135.93544251 60.07487867 -134.99270442 61.58528581 -134.046875 63.09375 C-133.58732422 63.83109375 -133.12777344 64.5684375 -132.65429688 65.328125 C-127.04912361 74.1397511 -120.87521191 82.39890805 -111.875 87.9375 C-106.6516411 88.95669198 -102.57922281 88.81239744 -97.9296875 85.9921875 C-89.48048644 79.06438599 -84.0437952 69.59308563 -78.3125 60.4375 C-77.54172119 59.20773438 -77.54172119 59.20773438 -76.75537109 57.953125 C-75.72199796 56.30335955 -74.68871275 54.65353902 -73.65551758 53.00366211 C-59.19457978 29.9385932 -43.00360403 8.28003642 -15.31884766 1.04174805 C-10.21380181 0.01568109 -5.19271391 -0.05123072 0 0 Z " fill="#FFCF39" transform="translate(187.3125,182.5625)"/>
</svg>
